<svg version="1.1" viewBox="0.0 0.0 841.5223097112861 686.7874015748032" fill="none" stroke="none" stroke-linecap="square" stroke-miterlimit="10" xmlns:xlink="http://www.w3.org/1999/xlink" xmlns="http://www.w3.org/2000/svg"><clipPath id="p.0"><path d="m0 0l841.52234 0l0 686.7874l-841.52234 0l0 -686.7874z" clip-rule="nonzero"/></clipPath><g clip-path="url(#p.0)"><path fill="#000000" fill-opacity="0.0" d="m0 0l841.52234 0l0 686.7874l-841.52234 0z" fill-rule="evenodd"/><path fill="#b7b7b7" d="m92.79527 349.79266l0 0c0 -169.20789 151.7508 -306.37796 338.9449 -306.37796l0 0c187.19412 0 338.94492 137.17007 338.94492 306.37796l0 0c0 169.20789 -151.7508 306.37793 -338.94492 306.37793l0 0c-187.19408 0 -338.9449 -137.17004 -338.9449 -306.37793z" fill-rule="evenodd"/><path stroke="#666666" stroke-width="1.0" stroke-linejoin="round" stroke-linecap="butt" d="m92.79527 349.79266l0 0c0 -169.20789 151.7508 -306.37796 338.9449 -306.37796l0 0c187.19412 0 338.94492 137.17007 338.94492 306.37796l0 0c0 169.20789 -151.7508 306.37793 -338.94492 306.37793l0 0c-187.19408 0 -338.9449 -137.17004 -338.9449 -306.37793z" fill-rule="evenodd"/><path fill="#000000" fill-opacity="0.0" d="m190.43307 260.61417l482.61417 0l0 172.91339l-482.61417 0z" fill-rule="evenodd"/><path fill="#000000" d="m293.3679 391.9798q-6.328125 0 -11.34375 -3.859375q-5.0 -3.875 -5.0 -13.625l0 -40.40625l-6.328125 0q-1.265625 0 -1.90625 -0.875q-0.625 -0.890625 -0.625 -2.921875l0 -1.515625q0 -2.03125 0.625 -2.90625q0.640625 -0.890625 1.90625 -0.890625l6.328125 0l1.53125 -13.3125q0.375 -2.78125 4.046875 -2.78125l1.265625 0q3.796875 0 3.796875 2.78125l0 13.3125l10.640625 0q1.390625 0 1.953125 0.890625q0.578125 0.875 0.578125 2.90625l0 1.515625q0 2.03125 -0.578125 2.921875q-0.5625 0.875 -1.953125 0.875l-10.640625 0l0 39.390625q0 5.328125 1.828125 7.359375q1.84375 2.015625 5.015625 2.015625q2.40625 0 3.609375 -0.3125q1.203125 -0.328125 1.84375 -0.328125q1.125 0 1.890625 2.34375q0.765625 2.34375 0.765625 3.609375q0 3.8125 -9.25 3.8125zm51.425842 0q-15.828125 0 -23.4375 -8.234375q-7.59375 -8.234375 -7.59375 -25.203125q0 -16.84375 7.46875 -25.578125q7.46875 -8.75 22.046875 -8.75q12.90625 0 19.484375 8.421875q6.59375 8.421875 6.59375 24.640625q0 1.140625 -1.515625 3.171875q-1.515625 2.015625 -2.65625 2.015625l-40.03125 0q0.765625 10.515625 5.453125 15.453125q4.6875 4.9375 14.0625 4.9375q5.3125 0 9.171875 -1.328125q3.875 -1.328125 6.40625 -2.65625q2.53125 -1.328125 2.90625 -1.328125q1.265625 0 2.84375 2.53125q1.59375 2.53125 1.59375 3.796875q0 1.515625 -3.171875 3.484375q-3.15625 1.953125 -8.421875 3.296875q-5.25 1.328125 -11.203125 1.328125zm13.296875 -38.640625q0 -20.0 -15.203125 -20.0q-16.328125 0 -17.734375 20.0l32.9375 0zm44.83023 38.640625q-9.75 0 -15.703125 -4.8125q-5.953125 -4.8125 -5.953125 -14.1875q0 -10.015625 6.015625 -15.015625q6.015625 -5.0 14.75 -6.453125q8.75 -1.453125 21.28125 -1.59375l0 -5.953125q0 -4.671875 -3.296875 -7.640625q-3.28125 -2.984375 -10.625 -2.984375q-5.578125 0 -9.765625 1.328125q-4.171875 1.328125 -6.96875 2.65625q-2.78125 1.328125 -3.03125 1.328125q-1.265625 0 -2.859375 -2.53125q-1.578125 -2.53125 -1.578125 -3.796875q0 -1.65625 3.359375 -3.546875q3.359375 -1.90625 8.921875 -3.234375q5.578125 -1.328125 11.53125 -1.328125q11.78125 0 18.359375 5.265625q6.59375 5.25 6.59375 14.625l0 28.359375q0 8.359375 0.765625 11.96875q0.765625 3.609375 0.765625 4.0q0 1.515625 -2.40625 2.21875q-2.40625 0.6875 -4.4375 0.6875q-1.78125 0 -2.609375 -1.953125q-0.8125 -1.96875 -1.265625 -4.125q-0.4375 -2.15625 -0.5625 -2.78125q-8.609375 9.5 -21.28125 9.5zm0.515625 -9.25q6.203125 0 10.6875 -2.28125q4.5 -2.28125 9.1875 -6.453125l0 -14.953125q-9.5 0.125 -15.515625 0.765625q-6.015625 0.625 -10.578125 3.546875q-4.546875 2.90625 -4.546875 8.984375q0 5.0625 2.71875 7.734375q2.71875 2.65625 8.046875 2.65625zm86.887054 9.25q-19.0 0 -29.015625 -11.59375q-10.0 -11.59375 -10.0 -33.75q0 -22.171875 9.9375 -33.5q9.953125 -11.34375 29.078125 -11.34375q19.125 0 29.12497 11.34375q10.0 11.328125 10.0 33.5q0 22.15625 -10.0 33.75q-9.9999695 11.59375 -29.12497 11.59375zm0 -9.625q13.421875 0 20.515625 -9.125q7.0937195 -9.125 7.0937195 -26.59375q0 -17.359375 -7.0937195 -26.28125q-7.09375 -8.9375 -20.515625 -8.9375q-13.4375 0 -20.46875 8.9375q-7.015625 8.921875 -7.015625 26.28125q0 17.46875 7.015625 26.59375q7.03125 9.125 20.46875 9.125zm77.2576 9.625q-7.59375 0 -14.0625 -1.765625q-6.453125 -1.78125 -9.75 -4.3125q-2.40625 -1.78125 -2.40625 -3.171875q0 -1.515625 1.703125 -4.171875q1.71875 -2.671875 2.734375 -2.671875q0.5 0 2.65625 1.265625q3.921875 2.15625 8.421875 3.6875q4.5 1.515625 10.703125 1.515625q7.34375 0 11.96875 -4.109375q4.625 -4.125 4.625 -10.84375q0 -4.6875 -2.53125 -7.78125q-2.53125 -3.109375 -6.15625 -4.9375q-3.609375 -1.84375 -10.4375 -4.5q-7.34375 -2.921875 -11.65625 -5.328125q-4.3125 -2.40625 -7.359375 -7.15625q-3.03125 -4.75 -3.03125 -12.46875q0 -6.84375 3.484375 -12.15625q3.484375 -5.328125 9.875 -8.296875q6.40625 -2.984375 14.765625 -2.984375q4.296875 0 9.609375 1.203125q5.328125 1.203125 8.25 3.234375q2.53125 1.515625 2.53125 3.296875q0 1.390625 -1.59375 4.046875q-1.578125 2.65625 -2.453125 2.65625q-0.640625 0 -1.84375 -0.625q-1.203125 -0.640625 -1.578125 -0.890625q-6.34375 -3.296875 -13.171875 -3.296875q-7.359375 0 -11.859375 3.8125q-4.484375 3.796875 -4.484375 10.5q0 4.3125 2.21875 6.96875q2.21875 2.65625 5.0625 3.984375q2.84375 1.328125 9.9375 4.125q7.609375 2.90625 12.421875 5.640625q4.8125 2.71875 8.15625 7.84375q3.359375 5.125 3.359375 13.109375q0 11.40625 -7.59375 18.0q-7.59375 6.578125 -20.515625 6.578125z" fill-rule="nonzero"/></g></svg>